<svg width="905" height="1010" viewBox="0 0 905 1010" fill="none" xmlns="http://www.w3.org/2000/svg">
<path d="M816.5 253.552C810.9 254.752 805.83 269.052 804 276.052L780 282.052C780.83 284.882 781.7 290.752 778.5 291.552C775.3 292.352 765.5 301.222 761 305.552L758 312.052H738L731 308.052V315.552C731 324.352 743.33 329.552 749.5 331.052V349.552L729 352.052C725 353.382 716.7 355.552 715.5 353.552C714.3 351.552 704.67 352.722 700 353.552L680.5 358.552C672 356.382 655.5 350.552 657.5 344.552C659.5 338.552 656.67 335.052 655 334.052L653 319.552C645.4 309.152 633.5 315.222 628.5 319.552C630.5 322.382 633.6 328.952 630 332.552C626.4 336.152 627.5 345.392 628.5 349.552C631.934 351.922 634.42 355.43 635.518 359.456C636.616 363.482 636.255 367.766 634.5 371.552C629.7 382.752 612.83 376.222 605 371.552H582L569 365.052H549.5C541.83 354.222 523.6 334.152 512 340.552C497.5 348.552 490 347.052 485.5 347.052C481.9 347.052 470.67 337.392 465.5 332.552H445.5L423 310.052C419 308.222 408.8 303.752 400 300.552C391.2 297.352 396.33 290.222 400 287.052C399.67 281.552 399.6 269.952 402 267.552C404.4 265.152 411.67 260.552 415 258.552C416.67 255.882 419.4 249.652 417 246.052C414.6 242.452 386.33 225.882 372.5 218.052L365.5 210.052H358.5L357.5 195.052C356.17 193.052 353.2 188.852 352 188.052C350.8 187.252 349.5 184.052 349 182.552L347 177.052L346 168.552L357.5 174.552C355.83 174.722 353.7 175.152 358.5 175.552C363.3 175.952 374.5 167.722 379.5 163.552L374.5 154.052L372.5 151.052L374.5 139.052L367.5 137.052H361L358.5 133.052V127.052L361 112.052L367.5 114.052H374.5C377.7 106.852 389.83 93.3816 395.5 87.5516V78.5516L402 69.5516C406 54.5516 377.5 44.0516 374.5 44.0516C371.5 44.0516 369.5 47.5516 363.5 49.5516C357.5 51.5516 352 43.0516 332 57.0516C316 68.2516 312.33 56.7216 312.5 49.5516H295.5C295.67 46.3816 294.7 38.9516 289.5 34.5516C283 29.0516 275 30.5516 267 18.0516C259 5.55156 240.5 2.55156 232.5 3.05156C226.1 3.45156 202.5 11.2216 191.5 15.0516L177 27.5516C165.4 35.1516 172.17 45.3816 177 49.5516H187.5C195.17 56.0516 210.9 69.1516 212.5 69.5516C214.5 70.0516 215.5 76.5516 215.5 78.5516C215.5 80.1516 200.83 92.2216 193.5 98.0516V143.052L232.5 168.552L247.5 171.552V178.552L236.5 182.552L222 193.052V215.052L201 250.552L191.5 253.052L181.5 256.552V267.552L167.5 289.552L159 294.052L127.5 329.552L104 332.552C102.4 321.752 98 318.052 96 317.552C82.5 316.552 57 342.552 55 356.052C53.4 366.852 71.67 373.222 81 375.052C81 384.052 70.5 383.552 70.5 392.052C70.5 398.852 84.83 403.892 92 405.552V418.052L98 428.052L102 445.552L92 449.552H87L81 446.552L77 449.552L73.5 454.052L66.5 456.052L62.5 449.552L55 446.552L49 451.552H34.5L33 446.552L28 445.552L25 449.552V458.552H18.5V456.052H6.5L4 463.052L10 473.552L34.5 496.052L49 501.552L57 498.552L66.5 496.052L73.5 498.552L70.5 506.052L59.5 513.052L47 516.552L43 513.052H34.5L28 516.552V528.052L66.5 567.552L87 577.552H100L132.5 562.552L137.5 556.052V536.552L140 530.052L143.5 528.052L146.5 536.552L148.5 548.552L146.5 556.052V562.552L152.5 574.552C155.67 576.052 160.1 581.252 152.5 590.052C144.9 598.852 145.33 620.052 146.5 629.552L162 692.552C163.5 702.722 166.6 725.052 167 733.052C167.4 741.052 189.83 780.052 201 798.552C201 817.752 212.33 850.552 218 864.552C246.5 885.552 241.5 903.052 244 905.052C246.5 907.052 257 930.552 257.5 942.552C258 954.552 270 981.552 272 985.052C274 988.552 294.5 1007.05 306.5 1006.55C316.1 1006.15 325.83 997.392 329.5 993.052C323.5 971.452 349.33 964.722 363 964.052C355.4 952.852 362.83 946.722 367.5 945.052C366.17 936.892 365.3 922.152 372.5 928.552C379.7 934.952 389.5 931.222 393.5 928.552L389.5 875.552C392.67 868.722 400 853.852 404 849.052C408 844.252 409 837.052 409 834.052C401.17 806.552 391.2 751.052 414 749.052C442.5 746.552 433 731.552 440 728.052C447 724.552 465.5 730.052 470 723.052C473.6 717.452 474.17 709.052 474 705.552L480 699.552C493 694.552 501.5 688.052 503 685.552C504.5 683.052 505 675.052 506.5 672.052C507.7 669.652 512 666.392 514 665.052C520 665.452 528.17 659.892 531.5 657.052L552.5 627.052L570 612.052C593.2 608.452 608.67 589.892 613.5 581.052L611.5 556.552L656.5 533.552C659.83 535.222 667.8 537.352 673 532.552C678.2 527.752 672.83 518.892 669.5 515.052V490.552L655 470.552C671.8 459.752 652.33 446.052 640.5 440.552C639 434.222 639.8 421.452 655 421.052C670.2 420.652 669 413.222 666.5 409.552C654.67 403.552 632.5 390.152 638.5 384.552C644.5 378.952 652 380.892 655 382.552C660.6 374.552 667 380.552 669.5 384.552H680.5C683.3 384.552 685 387.892 685.5 389.552V413.552C709.1 419.152 730.33 413.222 738 409.552H758C760.796 410.234 763.376 411.609 765.5 413.552C767.9 415.952 761.5 428.892 758 435.052C740.8 443.852 732.83 458.052 731 464.052C732.67 470.722 737.5 484.752 743.5 487.552C749.5 490.352 754 488.722 755.5 487.552C754 477.552 753.3 458.152 762.5 460.552C774 463.552 779.5 513.052 779.5 519.052C779.5 523.852 785.5 527.052 788.5 528.052C791.67 527.222 797.5 524.252 795.5 519.052C793 512.552 793 483.552 795.5 484.052C797.5 484.452 802 479.222 804 476.552V451.052H820C836 446.052 834.5 398.552 835 395.552C835.4 393.152 840.17 387.222 842.5 384.552L844.5 353.552C850.1 351.952 866.17 331.892 873.5 322.052C879.83 325.552 893.7 331.352 898.5 326.552C903.3 321.752 898.17 311.552 895 307.052C907.8 293.052 898.67 284.552 892.5 282.052H873.5C874.966 277.893 876.807 273.877 879 270.052C882.5 264.052 868 248.052 861.5 246.552C855 245.052 843.5 262.052 837.5 263.552C831.5 265.052 823.5 252.052 816.5 253.552Z" stroke="#8B88FF" stroke-width="6"/>
<path d="M202.453 509.726C198.126 508.231 194.704 506.206 192.187 503.649C189.67 501.092 188.411 498.182 188.411 494.917C188.411 493.029 188.903 491.338 189.886 489.843C190.909 488.348 192.266 487.188 193.957 486.362C195.688 485.497 197.615 485.064 199.739 485.064C201.548 485.064 203.122 485.359 204.459 485.949C205.836 486.539 207.016 487.306 207.999 488.25C208.943 489.115 209.71 490.138 210.3 491.318C210.89 492.459 211.185 493.658 211.185 494.917C211.185 496.215 210.89 497.415 210.3 498.516C209.71 499.617 208.904 500.679 207.881 501.702L203.22 498.28C204.046 497.611 204.793 496.844 205.462 495.979C206.17 495.074 206.524 494.111 206.524 493.088C206.524 491.947 206.091 491.062 205.226 490.433C204.361 489.804 203.299 489.489 202.04 489.489C200.624 489.489 199.326 489.784 198.146 490.374C196.966 490.964 196.022 491.81 195.314 492.911C194.606 493.973 194.252 495.251 194.252 496.746C194.252 498.044 194.586 499.322 195.255 500.581C195.924 501.8 196.986 502.921 198.441 503.944C199.936 505.006 201.883 505.95 204.282 506.776L202.453 509.726ZM192.364 489.017C191.066 488.073 189.984 487.011 189.119 485.831C188.254 484.612 187.821 483.314 187.821 481.937C187.821 479.813 188.686 478.2 190.417 477.099C192.148 475.998 194.37 475.447 197.084 475.447C198.185 475.447 199.188 475.486 200.093 475.565C200.998 475.604 201.922 475.683 202.866 475.801L201.745 476.804V469.606H207.881V480.226C207.134 480.147 206.209 480.088 205.108 480.049C204.007 479.97 202.905 479.931 201.804 479.931C198.697 479.931 196.474 480.285 195.137 480.993C193.839 481.701 193.19 482.665 193.19 483.884C193.19 484.513 193.347 485.084 193.662 485.595C194.016 486.067 194.468 486.48 195.019 486.834L192.364 489.017ZM184.045 471.317L181.213 466.892V466.125H213.309L216.082 470.609V471.317H184.045ZM223.714 494.445C222.77 494.445 221.826 494.209 220.882 493.737C219.938 493.265 219.072 492.636 218.286 491.849C217.538 491.062 216.929 490.197 216.457 489.253C216.024 488.27 215.808 487.286 215.808 486.303C215.808 485.359 216.044 484.671 216.516 484.238C217.027 483.766 217.715 483.451 218.581 483.294C219.485 483.137 220.528 483.058 221.708 483.058C223.674 483.058 225.7 483.156 227.785 483.353C229.869 483.51 231.797 483.707 233.567 483.943C235.337 484.179 236.694 484.395 237.638 484.592V488.84C236.969 488.801 236.045 488.781 234.865 488.781C233.685 488.742 232.426 488.722 231.089 488.722C229.751 488.683 228.512 488.663 227.372 488.663C227.096 488.663 226.801 488.663 226.487 488.663C226.172 488.663 225.916 488.663 225.72 488.663L226.487 487.66V490.728C226.487 491.908 226.27 492.832 225.838 493.501C225.405 494.13 224.697 494.445 223.714 494.445ZM220.174 485.3V469.311H226.487V485.3H220.174ZM242.063 503.413L236.576 499.755V469.252H242.83V503.413H242.063ZM212.681 471.317L209.849 466.892V466.125H247.55L250.382 470.609V471.317H212.681ZM281.734 509.726C277.407 508.231 273.985 506.206 271.468 503.649C268.951 501.092 267.692 498.182 267.692 494.917C267.692 493.029 268.184 491.338 269.167 489.843C270.19 488.348 271.547 487.188 273.238 486.362C274.969 485.497 276.896 485.064 279.02 485.064C280.829 485.064 282.403 485.359 283.74 485.949C285.117 486.539 286.297 487.306 287.28 488.25C288.224 489.115 288.991 490.138 289.581 491.318C290.171 492.459 290.466 493.658 290.466 494.917C290.466 496.215 290.171 497.415 289.581 498.516C288.991 499.617 288.185 500.679 287.162 501.702L282.501 498.28C283.327 497.611 284.074 496.844 284.743 495.979C285.451 495.074 285.805 494.111 285.805 493.088C285.805 491.947 285.372 491.062 284.507 490.433C283.642 489.804 282.58 489.489 281.321 489.489C279.905 489.489 278.607 489.784 277.427 490.374C276.247 490.964 275.303 491.81 274.595 492.911C273.887 493.973 273.533 495.251 273.533 496.746C273.533 498.044 273.867 499.322 274.536 500.581C275.205 501.8 276.267 502.921 277.722 503.944C279.217 505.006 281.164 505.95 283.563 506.776L281.734 509.726ZM271.645 489.017C270.347 488.073 269.265 487.011 268.4 485.831C267.535 484.612 267.102 483.314 267.102 481.937C267.102 479.813 267.967 478.2 269.698 477.099C271.429 475.998 273.651 475.447 276.365 475.447C277.466 475.447 278.469 475.486 279.374 475.565C280.279 475.604 281.203 475.683 282.147 475.801L281.026 476.804V469.606H287.162V480.226C286.415 480.147 285.49 480.088 284.389 480.049C283.288 479.97 282.186 479.931 281.085 479.931C277.978 479.931 275.755 480.285 274.418 480.993C273.12 481.701 272.471 482.665 272.471 483.884C272.471 484.513 272.628 485.084 272.943 485.595C273.297 486.067 273.749 486.48 274.3 486.834L271.645 489.017ZM263.326 471.317L260.494 466.892V466.125H292.59L295.363 470.609V471.317H263.326ZM282.467 466.715C281.129 465.102 279.831 463.903 278.573 463.116C277.314 462.29 275.859 461.877 274.207 461.877C273.499 461.877 272.791 461.956 272.083 462.113C271.335 462.27 270.608 462.487 269.9 462.762L268.13 457.924C268.759 457.688 269.428 457.491 270.136 457.334C270.844 457.177 271.63 457.098 272.496 457.098C273.951 457.098 275.288 457.373 276.508 457.924C277.688 458.475 278.809 459.242 279.871 460.225C280.933 461.169 281.936 462.31 282.88 463.647L283.116 463.588C282.25 461.464 281.385 459.733 280.52 458.396C279.615 457.019 278.651 455.997 277.629 455.328C276.567 454.659 275.347 454.325 273.971 454.325C273.302 454.325 272.653 454.384 272.024 454.502C271.394 454.62 270.765 454.797 270.136 455.033L268.248 450.254C268.877 450.018 269.605 449.821 270.431 449.664C271.257 449.467 272.122 449.369 273.027 449.369C274.6 449.369 276.016 449.644 277.275 450.195C278.494 450.746 279.635 451.69 280.697 453.027C281.719 454.325 282.742 456.095 283.765 458.337C284.787 460.579 285.849 463.372 286.951 466.715H282.467ZM289.134 459.458C286.695 459.458 285.476 458.18 285.476 455.623C285.476 454.404 285.79 453.479 286.42 452.85C287.049 452.181 287.954 451.847 289.134 451.847C290.314 451.847 291.199 452.181 291.789 452.85C292.418 453.479 292.733 454.404 292.733 455.623C292.733 458.18 291.533 459.458 289.134 459.458ZM319.358 494.445C318.414 494.445 317.47 494.209 316.526 493.737C315.582 493.265 314.717 492.636 313.93 491.849C313.183 491.062 312.573 490.197 312.101 489.253C311.668 488.27 311.452 487.286 311.452 486.303C311.452 485.359 311.688 484.671 312.16 484.238C312.671 483.766 313.36 483.451 314.225 483.294C315.13 483.137 316.172 483.058 317.352 483.058C319.319 483.058 321.344 483.156 323.429 483.353C325.514 483.51 327.441 483.707 329.211 483.943C330.981 484.179 332.338 484.395 333.282 484.592V488.84C332.613 488.801 331.689 488.781 330.509 488.781C329.329 488.742 328.07 488.722 326.733 488.722C325.396 488.683 324.157 488.663 323.016 488.663C322.741 488.663 322.446 488.663 322.131 488.663C321.816 488.663 321.561 488.663 321.364 488.663L322.131 487.66V490.728C322.131 491.908 321.915 492.832 321.482 493.501C321.049 494.13 320.341 494.445 319.358 494.445ZM315.818 485.3V469.311H322.131V485.3H315.818ZM337.707 503.413L332.22 499.755V469.252H338.474V503.413H337.707ZM308.325 471.317L305.493 466.892V466.125H343.194L346.026 470.609V471.317H308.325ZM334.454 466.715C333.785 465.26 333.136 464.001 332.507 462.939C331.877 461.838 331.248 460.894 330.619 460.107C329.714 458.927 328.77 458.101 327.787 457.629C326.803 457.118 325.643 456.862 324.306 456.862C323.598 456.862 322.831 456.96 322.005 457.157C321.139 457.354 320.333 457.629 319.586 457.983L316.341 451.611C317.167 451.257 318.052 450.982 318.996 450.785C319.9 450.588 320.903 450.49 322.005 450.49C323.539 450.49 324.994 450.785 326.371 451.375C327.708 451.926 329.026 452.83 330.324 454.089C331.582 455.308 332.841 456.96 334.1 459.045C335.358 461.09 336.637 463.647 337.935 466.715H334.454ZM377.948 467.069C376.336 464.67 374.526 462.624 372.52 460.933C370.554 459.202 368.43 457.885 366.148 456.98C363.867 456.036 361.468 455.564 358.95 455.564C356.354 455.564 354.329 456.154 352.873 457.334C351.418 458.475 350.69 460.068 350.69 462.113C350.69 462.939 350.828 463.745 351.103 464.532C351.379 465.279 351.733 465.987 352.165 466.656H349.156C348.094 465.594 347.19 464.394 346.442 463.057C345.734 461.68 345.38 460.264 345.38 458.809C345.38 456.252 346.364 454.168 348.33 452.555C350.336 450.903 353.031 450.077 356.413 450.077C359.599 450.077 362.746 450.785 365.853 452.201C369 453.578 371.93 455.544 374.644 458.101C377.358 460.658 379.699 463.647 381.665 467.069H377.948ZM352.932 503.413L347.445 499.755V469.488H353.699V503.413H352.932ZM342.607 471.317L339.775 466.833V466.125H358.419L361.251 470.668V471.317H342.607ZM376.403 502.823C374.043 502.823 371.801 502.351 369.677 501.407C367.593 500.463 365.646 499.185 363.836 497.572C362.066 495.959 360.493 494.15 359.116 492.144L361.83 490.138C363.482 492.498 365.39 494.366 367.553 495.743C369.756 497.08 372.018 497.749 374.338 497.749C375.912 497.749 377.328 497.533 378.586 497.1C379.884 496.667 380.907 496.077 381.654 495.33C382.441 494.543 382.834 493.658 382.834 492.675C382.834 491.77 382.539 491.082 381.949 490.61C381.359 490.138 380.612 489.902 379.707 489.902C378.763 489.902 377.701 490.118 376.521 490.551C375.381 490.984 374.043 491.692 372.509 492.675C371.015 491.849 369.618 490.885 368.32 489.784C367.062 488.683 366.039 487.483 365.252 486.185C364.505 484.887 364.131 483.53 364.131 482.114C364.131 480.029 364.938 478.417 366.55 477.276C368.163 476.096 370.366 475.506 373.158 475.506C373.984 475.506 374.81 475.526 375.636 475.565C376.462 475.604 377.387 475.703 378.409 475.86L376.757 476.863V469.429H382.834V480.226C382.087 480.147 381.32 480.088 380.533 480.049C379.786 480.01 379.019 479.99 378.232 479.99C375.086 479.99 372.726 480.403 371.152 481.229C369.618 482.016 368.851 483.058 368.851 484.356C368.851 484.946 368.989 485.457 369.264 485.89C369.579 486.323 369.953 486.696 370.385 487.011C371.605 486.224 372.824 485.634 374.043 485.241C375.263 484.848 376.423 484.651 377.524 484.651C378.822 484.651 380.081 484.907 381.3 485.418C382.52 485.929 383.601 486.736 384.545 487.837C385.332 488.742 385.942 489.705 386.374 490.728C386.807 491.711 387.023 492.773 387.023 493.914C387.023 495.605 386.591 497.12 385.725 498.457C384.899 499.794 383.68 500.856 382.067 501.643C380.494 502.43 378.606 502.823 376.403 502.823ZM357.818 471.317L354.986 466.892V466.125H389.737L392.51 470.609V471.317H357.818ZM404.149 496.628C402.34 496.628 400.688 496.294 399.193 495.625C397.738 494.956 396.42 494.071 395.24 492.97C394.021 491.869 393.038 490.649 392.29 489.312C391.543 487.935 391.169 486.48 391.169 484.946C391.169 483.215 391.622 481.701 392.526 480.403C393.431 479.105 394.65 478.082 396.184 477.335C397.718 476.588 399.351 476.214 401.081 476.214C403.166 476.214 404.956 476.568 406.45 477.276C407.984 477.945 409.282 478.731 410.344 479.636V483.117C409.322 482.448 408.279 481.957 407.217 481.642C406.195 481.288 404.995 481.111 403.618 481.111C402.124 481.111 400.786 481.386 399.606 481.937C398.466 482.488 397.581 483.235 396.951 484.179C396.322 485.084 396.007 486.067 396.007 487.129C396.007 488.034 396.224 488.86 396.656 489.607C397.089 490.315 397.718 490.885 398.544 491.318C399.37 491.751 400.354 491.967 401.494 491.967C403.186 491.967 404.798 491.475 406.332 490.492C407.866 489.509 409.44 488.171 411.052 486.48V493.619C410.305 494.445 409.341 495.153 408.161 495.743C406.981 496.333 405.644 496.628 404.149 496.628ZM405.978 492.852L397.305 480.934L399.842 479.4L408.515 491.259L405.978 492.852ZM414.946 503.413L409.459 499.755V469.252H415.713V503.413H414.946ZM389.104 471.317L386.272 466.892V466.125H420.433L423.265 470.609V471.317H389.104ZM411.661 466.715C410.992 465.26 410.343 464.001 409.714 462.939C409.085 461.838 408.455 460.894 407.826 460.107C406.921 458.927 405.977 458.101 404.994 457.629C404.011 457.118 402.85 456.862 401.513 456.862C400.805 456.862 400.038 456.96 399.212 457.157C398.347 457.354 397.54 457.629 396.793 457.983L393.548 451.611C394.374 451.257 395.259 450.982 396.203 450.785C397.108 450.588 398.111 450.49 399.212 450.49C400.746 450.49 402.201 450.785 403.578 451.375C404.915 451.926 406.233 452.83 407.531 454.089C408.79 455.308 410.048 456.96 411.307 459.045C412.566 461.09 413.844 463.647 415.142 466.715H411.661ZM450.454 485.536V472.379C450.454 471.553 450.238 470.904 449.805 470.432C449.412 469.921 448.802 469.665 447.976 469.665C447.032 469.665 446.265 469.94 445.675 470.491C445.085 471.042 444.79 471.789 444.79 472.733C444.79 473.638 445.066 474.503 445.616 475.329C446.206 476.155 447.052 476.863 448.153 477.453C449.255 478.004 450.553 478.397 452.047 478.633L453.05 481.17C452.814 481.17 452.578 481.17 452.342 481.17C452.146 481.17 451.929 481.17 451.693 481.17C450.081 481.17 448.488 480.954 446.914 480.521C445.38 480.088 443.984 479.459 442.725 478.633C441.467 477.807 440.464 476.804 439.716 475.624C438.969 474.444 438.595 473.146 438.595 471.73C438.595 469.96 439.244 468.485 440.542 467.305C441.84 466.125 443.551 465.535 445.675 465.535C447.209 465.535 448.625 465.85 449.923 466.479C451.261 467.069 452.401 467.895 453.345 468.957C454.329 470.019 455.076 471.238 455.587 472.615C456.138 473.992 456.413 475.388 456.413 476.804V485.536H450.454ZM453.64 494.799C452.736 494.799 451.811 494.563 450.867 494.091C449.963 493.58 449.117 492.931 448.33 492.144C447.583 491.357 446.973 490.512 446.501 489.607C446.029 488.663 445.793 487.739 445.793 486.834C445.793 485.379 446.324 484.454 447.386 484.061C448.488 483.628 449.923 483.412 451.693 483.412C453.581 483.412 455.568 483.51 457.652 483.707C459.737 483.864 461.664 484.061 463.434 484.297C465.244 484.533 466.601 484.749 467.505 484.946V489.135C466.719 489.096 465.755 489.076 464.614 489.076C463.513 489.037 462.333 489.017 461.074 489.017C459.816 489.017 458.557 489.017 457.298 489.017C457.062 489.017 456.787 489.017 456.472 489.017C456.158 489.017 455.882 489.017 455.646 489.017L456.413 488.191V491.318C456.413 492.419 456.197 493.285 455.764 493.914C455.332 494.504 454.624 494.799 453.64 494.799ZM471.281 503.413L465.735 499.755V469.252H471.989V503.413H471.281ZM461.31 471.317L458.537 466.892V466.125H476.768L479.6 470.609V471.317H461.31ZM486.489 503.413L481.002 499.755V469.252H487.256V503.413H486.489ZM476.164 471.317L473.332 466.892V466.125H491.976L494.808 470.609V471.317H476.164ZM509.783 504.003C507.738 502.469 505.81 500.817 504.001 499.047C502.231 497.277 500.658 495.507 499.281 493.737C497.904 491.928 496.823 490.217 496.036 488.604C495.249 486.952 494.856 485.516 494.856 484.297C494.856 483.196 495.171 482.37 495.8 481.819C496.429 481.229 497.334 480.934 498.514 480.934C499.497 480.934 500.54 481.131 501.641 481.524C502.782 481.917 503.903 482.507 505.004 483.294L502.585 483.117C503.254 482.409 503.726 481.544 504.001 480.521C504.316 479.459 504.473 478.299 504.473 477.04C504.473 475.821 504.355 474.562 504.119 473.264C503.922 471.966 503.588 470.747 503.116 469.606H508.544C509.055 471.14 509.468 472.713 509.783 474.326C510.137 475.939 510.314 477.551 510.314 479.164C510.314 481.76 509.645 483.923 508.308 485.654C507.01 487.385 505.043 488.447 502.408 488.84C501.975 488.919 501.562 488.997 501.169 489.076C500.776 489.115 500.382 489.155 499.989 489.194L499.104 487.188C500.205 488.84 501.582 490.433 503.234 491.967C504.886 493.462 506.656 494.838 508.544 496.097C510.432 497.356 512.281 498.477 514.09 499.46L509.783 504.003ZM491.375 471.317L488.543 466.892V466.125H515.506L518.338 470.609V471.317H491.375ZM529.277 503.885C527.783 502.784 526.347 501.604 524.97 500.345C523.594 499.086 522.374 497.769 521.312 496.392C520.29 495.015 519.464 493.58 518.834 492.085C518.205 490.59 517.89 489.017 517.89 487.365C517.89 485.359 518.402 483.628 519.424 482.173C520.486 480.678 521.922 479.538 523.731 478.751C525.541 477.925 527.606 477.512 529.926 477.512C531.382 477.512 532.837 477.61 534.292 477.807C535.787 477.964 537.065 478.141 538.127 478.338V483.294C537.262 483.215 536.279 483.137 535.177 483.058C534.115 482.94 532.994 482.881 531.814 482.881C529.454 482.881 527.625 483.491 526.327 484.71C525.029 485.929 524.38 487.562 524.38 489.607C524.38 491.023 524.675 492.4 525.265 493.737C525.895 495.074 526.74 496.372 527.802 497.631C528.864 498.89 530.143 500.109 531.637 501.289L529.277 503.885ZM543.024 503.413L537.419 499.755V469.252H543.732V503.413H543.024ZM514.94 471.317L512.108 466.892V466.125H548.511L551.343 470.609V471.317H514.94ZM575.117 490.138L572.462 460.874H581.43L578.834 490.138H575.117ZM577.005 503.472C575.785 503.472 574.743 503.138 573.878 502.469C573.012 501.8 572.58 500.64 572.58 498.988C572.58 497.297 573.012 496.136 573.878 495.507C574.743 494.878 575.785 494.563 577.005 494.563C578.185 494.563 579.207 494.878 580.073 495.507C580.977 496.136 581.43 497.297 581.43 498.988C581.43 500.679 580.977 501.859 580.073 502.528C579.207 503.157 578.185 503.472 577.005 503.472Z" fill="#D6D7FF"/>
</svg>
