<svg width="1149" height="832" viewBox="0 0 1149 832" fill="none" xmlns="http://www.w3.org/2000/svg">
<g clip-path="url(#clip0_72_3)">
<g opacity="0.27">
<path opacity="0.13" d="M682.61 766.058C530.48 695.872 380.811 574.5 151.978 675.034C96.1556 699.334 44.7885 732.796 0 774.034C14.2702 799.866 38.1458 819.033 66.4517 827.381C319.996 657.317 492.884 793.258 682.61 766.058Z" fill="#4285F4"/>
<path opacity="0.31" d="M859.153 685.282C796.708 735.248 738.4 757.96 681.58 766.096C773.806 808.624 866.939 832.331 979.16 776.448C1047.39 742.467 1103.3 687.524 1148.98 623.079V0C1138.14 128.528 1087.44 502.602 859.153 685.282Z" fill="#6B5BF9"/>
<path opacity="0.13" d="M979.336 776.418C867.219 832.35 774.157 808.605 682.035 766.059C492.484 793.258 319.761 657.318 66.4551 827.366C76.6933 830.377 87.3097 831.906 97.9814 831.906H1037.19C1051.88 831.899 1066.43 828.999 1080 823.371C1093.57 817.743 1105.89 809.497 1116.28 799.105C1126.66 788.713 1134.89 776.377 1140.51 762.803C1146.12 749.228 1149.01 734.681 1149 719.991V622.922C1103.36 687.419 1047.5 742.407 979.336 776.418Z" fill="#4285F4"/>
<path opacity="0.31" d="M979.336 776.418C867.219 832.35 774.157 808.605 682.035 766.059C492.484 793.258 319.761 657.318 66.4551 827.366C76.6933 830.377 87.3097 831.906 97.9814 831.906H1037.19C1051.88 831.899 1066.43 828.999 1080 823.371C1093.57 817.743 1105.89 809.497 1116.28 799.105C1126.66 788.713 1134.89 776.377 1140.51 762.803C1146.12 749.228 1149.01 734.681 1149 719.991V622.922C1103.36 687.419 1047.5 742.407 979.336 776.418Z" fill="#1F0A51"/>
</g>
</g>
<defs>
<clipPath id="clip0_72_3">
<rect width="1149" height="831.906" fill="white"/>
</clipPath>
</defs>
</svg>
